<mxfile host="app.diagrams.net" agent="Mozilla/5.0 (Windows NT 10.0; Win64; x64) AppleWebKit/537.36 (KHTML, like Gecko) Chrome/139.0.0.0 Safari/537.36" version="27.1.4" pages="2">
  <diagram name="Page-1" id="9BYK_L4OpRzOUnWOjzk-">
    <mxGraphModel dx="254" dy="604" grid="1" gridSize="10" guides="1" tooltips="1" connect="1" arrows="1" fold="1" page="1" pageScale="1" pageWidth="827" pageHeight="1169" math="0" shadow="0">
      <root>
        <mxCell id="0" />
        <mxCell id="1" parent="0" />
        <mxCell id="Cw1JEO6UzoWqQZHTHkFN-5" value="ime" style="ellipse;whiteSpace=wrap;html=1;" vertex="1" parent="1">
          <mxGeometry x="610" y="170" width="70" height="40" as="geometry" />
        </mxCell>
        <mxCell id="vTyGNoZtcdpg6SRQKZWc-11" value="" style="group" vertex="1" connectable="0" parent="1">
          <mxGeometry x="160" y="110" width="310" height="200" as="geometry" />
        </mxCell>
        <mxCell id="vTyGNoZtcdpg6SRQKZWc-9" value="" style="edgeStyle=none;shape=connector;rounded=0;orthogonalLoop=1;jettySize=auto;html=1;strokeColor=default;align=center;verticalAlign=middle;fontFamily=Helvetica;fontSize=12;fontColor=default;labelBackgroundColor=default;endArrow=none;" edge="1" parent="vTyGNoZtcdpg6SRQKZWc-11" source="Cw1JEO6UzoWqQZHTHkFN-6" target="vTyGNoZtcdpg6SRQKZWc-1">
          <mxGeometry relative="1" as="geometry" />
        </mxCell>
        <mxCell id="Cw1JEO6UzoWqQZHTHkFN-6" value="pol" style="ellipse;whiteSpace=wrap;html=1;" vertex="1" parent="vTyGNoZtcdpg6SRQKZWc-11">
          <mxGeometry x="180" y="60" width="70" height="40" as="geometry" />
        </mxCell>
        <mxCell id="vTyGNoZtcdpg6SRQKZWc-10" style="edgeStyle=none;shape=connector;rounded=0;orthogonalLoop=1;jettySize=auto;html=1;exitX=0.5;exitY=1;exitDx=0;exitDy=0;entryX=1;entryY=0;entryDx=0;entryDy=0;strokeColor=default;align=center;verticalAlign=middle;fontFamily=Helvetica;fontSize=12;fontColor=default;labelBackgroundColor=default;endArrow=none;" edge="1" parent="vTyGNoZtcdpg6SRQKZWc-11" source="Cw1JEO6UzoWqQZHTHkFN-7" target="vTyGNoZtcdpg6SRQKZWc-1">
          <mxGeometry relative="1" as="geometry" />
        </mxCell>
        <mxCell id="Cw1JEO6UzoWqQZHTHkFN-7" value="datum na&amp;nbsp;&lt;div&gt;registracija&lt;/div&gt;" style="ellipse;whiteSpace=wrap;html=1;" vertex="1" parent="vTyGNoZtcdpg6SRQKZWc-11">
          <mxGeometry x="220" y="10" width="90" height="50" as="geometry" />
        </mxCell>
        <mxCell id="vTyGNoZtcdpg6SRQKZWc-8" style="edgeStyle=none;shape=connector;rounded=0;orthogonalLoop=1;jettySize=auto;html=1;exitX=0.5;exitY=1;exitDx=0;exitDy=0;strokeColor=default;align=center;verticalAlign=middle;fontFamily=Helvetica;fontSize=12;fontColor=default;labelBackgroundColor=default;endArrow=none;" edge="1" parent="vTyGNoZtcdpg6SRQKZWc-11" source="Cw1JEO6UzoWqQZHTHkFN-8">
          <mxGeometry relative="1" as="geometry">
            <mxPoint x="180" y="140" as="targetPoint" />
          </mxGeometry>
        </mxCell>
        <mxCell id="Cw1JEO6UzoWqQZHTHkFN-8" value="datum&amp;nbsp;&lt;span style=&quot;background-color: transparent; color: light-dark(rgb(0, 0, 0), rgb(255, 255, 255));&quot;&gt;na&amp;nbsp;&lt;/span&gt;&lt;div&gt;ranjanje&lt;/div&gt;" style="ellipse;whiteSpace=wrap;html=1;" vertex="1" parent="vTyGNoZtcdpg6SRQKZWc-11">
          <mxGeometry x="120" width="90" height="50" as="geometry" />
        </mxCell>
        <mxCell id="Cw1JEO6UzoWqQZHTHkFN-9" value="e-mail" style="ellipse;whiteSpace=wrap;html=1;" vertex="1" parent="vTyGNoZtcdpg6SRQKZWc-11">
          <mxGeometry x="90" y="60" width="70" height="40" as="geometry" />
        </mxCell>
        <mxCell id="vTyGNoZtcdpg6SRQKZWc-6" value="" style="edgeStyle=none;shape=connector;rounded=0;orthogonalLoop=1;jettySize=auto;html=1;strokeColor=default;align=center;verticalAlign=middle;fontFamily=Helvetica;fontSize=12;fontColor=default;labelBackgroundColor=default;endArrow=none;entryX=0;entryY=0;entryDx=0;entryDy=0;" edge="1" parent="vTyGNoZtcdpg6SRQKZWc-11" source="Cw1JEO6UzoWqQZHTHkFN-10" target="vTyGNoZtcdpg6SRQKZWc-1">
          <mxGeometry relative="1" as="geometry" />
        </mxCell>
        <mxCell id="Cw1JEO6UzoWqQZHTHkFN-10" value="kor. ime" style="ellipse;whiteSpace=wrap;html=1;" vertex="1" parent="vTyGNoZtcdpg6SRQKZWc-11">
          <mxGeometry y="40" width="70" height="40" as="geometry" />
        </mxCell>
        <mxCell id="vTyGNoZtcdpg6SRQKZWc-5" value="" style="edgeStyle=none;shape=connector;rounded=0;orthogonalLoop=1;jettySize=auto;html=1;strokeColor=default;align=center;verticalAlign=middle;fontFamily=Helvetica;fontSize=12;fontColor=default;labelBackgroundColor=default;endArrow=none;entryX=0;entryY=0.25;entryDx=0;entryDy=0;" edge="1" parent="vTyGNoZtcdpg6SRQKZWc-11" source="Cw1JEO6UzoWqQZHTHkFN-11" target="vTyGNoZtcdpg6SRQKZWc-1">
          <mxGeometry relative="1" as="geometry" />
        </mxCell>
        <mxCell id="Cw1JEO6UzoWqQZHTHkFN-11" value="prezime" style="ellipse;whiteSpace=wrap;html=1;" vertex="1" parent="vTyGNoZtcdpg6SRQKZWc-11">
          <mxGeometry x="10" y="100" width="70" height="40" as="geometry" />
        </mxCell>
        <mxCell id="vTyGNoZtcdpg6SRQKZWc-4" value="" style="edgeStyle=none;shape=connector;rounded=0;orthogonalLoop=1;jettySize=auto;html=1;strokeColor=default;align=center;verticalAlign=middle;fontFamily=Helvetica;fontSize=12;fontColor=default;labelBackgroundColor=default;endArrow=none;" edge="1" parent="vTyGNoZtcdpg6SRQKZWc-11" source="Cw1JEO6UzoWqQZHTHkFN-12" target="vTyGNoZtcdpg6SRQKZWc-1">
          <mxGeometry relative="1" as="geometry" />
        </mxCell>
        <mxCell id="Cw1JEO6UzoWqQZHTHkFN-12" value="ime" style="ellipse;whiteSpace=wrap;html=1;" vertex="1" parent="vTyGNoZtcdpg6SRQKZWc-11">
          <mxGeometry y="150" width="70" height="40" as="geometry" />
        </mxCell>
        <mxCell id="vTyGNoZtcdpg6SRQKZWc-15" style="edgeStyle=none;shape=connector;rounded=0;orthogonalLoop=1;jettySize=auto;html=1;exitX=1;exitY=0.25;exitDx=0;exitDy=0;strokeColor=default;align=center;verticalAlign=middle;fontFamily=Helvetica;fontSize=12;fontColor=default;labelBackgroundColor=default;endArrow=none;" edge="1" parent="vTyGNoZtcdpg6SRQKZWc-11" source="vTyGNoZtcdpg6SRQKZWc-1">
          <mxGeometry relative="1" as="geometry">
            <mxPoint x="310" y="129.9999999999999" as="targetPoint" />
          </mxGeometry>
        </mxCell>
        <mxCell id="vTyGNoZtcdpg6SRQKZWc-1" value="KORISNIK" style="rounded=0;whiteSpace=wrap;html=1;strokeColor=default;align=center;verticalAlign=middle;fontFamily=Helvetica;fontSize=12;fontColor=default;labelBackgroundColor=default;fillColor=default;" vertex="1" parent="vTyGNoZtcdpg6SRQKZWc-11">
          <mxGeometry x="130" y="140" width="120" height="60" as="geometry" />
        </mxCell>
        <mxCell id="vTyGNoZtcdpg6SRQKZWc-2" style="edgeStyle=none;shape=connector;rounded=0;orthogonalLoop=1;jettySize=auto;html=1;exitX=0.5;exitY=0;exitDx=0;exitDy=0;strokeColor=default;align=center;verticalAlign=middle;fontFamily=Helvetica;fontSize=12;fontColor=default;labelBackgroundColor=default;endArrow=none;" edge="1" parent="vTyGNoZtcdpg6SRQKZWc-11" source="Cw1JEO6UzoWqQZHTHkFN-11" target="Cw1JEO6UzoWqQZHTHkFN-11">
          <mxGeometry relative="1" as="geometry" />
        </mxCell>
        <mxCell id="vTyGNoZtcdpg6SRQKZWc-7" style="edgeStyle=none;shape=connector;rounded=0;orthogonalLoop=1;jettySize=auto;html=1;exitX=0.5;exitY=1;exitDx=0;exitDy=0;entryX=0.153;entryY=0.044;entryDx=0;entryDy=0;entryPerimeter=0;strokeColor=default;align=center;verticalAlign=middle;fontFamily=Helvetica;fontSize=12;fontColor=default;labelBackgroundColor=default;endArrow=none;" edge="1" parent="vTyGNoZtcdpg6SRQKZWc-11" source="Cw1JEO6UzoWqQZHTHkFN-9" target="vTyGNoZtcdpg6SRQKZWc-1">
          <mxGeometry relative="1" as="geometry" />
        </mxCell>
        <mxCell id="vTyGNoZtcdpg6SRQKZWc-14" value="" style="edgeStyle=none;shape=connector;rounded=0;orthogonalLoop=1;jettySize=auto;html=1;strokeColor=default;align=center;verticalAlign=middle;fontFamily=Helvetica;fontSize=12;fontColor=default;labelBackgroundColor=default;endArrow=none;" edge="1" parent="1" source="vTyGNoZtcdpg6SRQKZWc-12" target="vTyGNoZtcdpg6SRQKZWc-13">
          <mxGeometry relative="1" as="geometry" />
        </mxCell>
        <mxCell id="vTyGNoZtcdpg6SRQKZWc-12" value="LISTI" style="rounded=0;whiteSpace=wrap;html=1;strokeColor=default;align=center;verticalAlign=middle;fontFamily=Helvetica;fontSize=12;fontColor=default;labelBackgroundColor=default;fillColor=default;" vertex="1" parent="1">
          <mxGeometry x="590" y="250" width="120" height="60" as="geometry" />
        </mxCell>
        <mxCell id="vTyGNoZtcdpg6SRQKZWc-21" value="" style="edgeStyle=none;shape=connector;rounded=0;orthogonalLoop=1;jettySize=auto;html=1;strokeColor=default;align=center;verticalAlign=middle;fontFamily=Helvetica;fontSize=12;fontColor=default;labelBackgroundColor=default;endArrow=none;" edge="1" parent="1" source="vTyGNoZtcdpg6SRQKZWc-13" target="vTyGNoZtcdpg6SRQKZWc-20">
          <mxGeometry relative="1" as="geometry" />
        </mxCell>
        <mxCell id="vTyGNoZtcdpg6SRQKZWc-13" value="spodeluva" style="rhombus;whiteSpace=wrap;html=1;rounded=0;labelBackgroundColor=default;" vertex="1" parent="1">
          <mxGeometry x="460" y="210" width="80" height="50" as="geometry" />
        </mxCell>
        <mxCell id="vTyGNoZtcdpg6SRQKZWc-17" value="" style="edgeStyle=none;shape=connector;rounded=0;orthogonalLoop=1;jettySize=auto;html=1;strokeColor=default;align=center;verticalAlign=middle;fontFamily=Helvetica;fontSize=12;fontColor=default;labelBackgroundColor=default;endArrow=none;" edge="1" parent="1" source="vTyGNoZtcdpg6SRQKZWc-16" target="vTyGNoZtcdpg6SRQKZWc-1">
          <mxGeometry relative="1" as="geometry" />
        </mxCell>
        <mxCell id="vTyGNoZtcdpg6SRQKZWc-18" value="" style="edgeStyle=none;shape=connector;rounded=0;orthogonalLoop=1;jettySize=auto;html=1;strokeColor=default;align=center;verticalAlign=middle;fontFamily=Helvetica;fontSize=12;fontColor=default;labelBackgroundColor=default;endArrow=none;" edge="1" parent="1" source="vTyGNoZtcdpg6SRQKZWc-16" target="vTyGNoZtcdpg6SRQKZWc-12">
          <mxGeometry relative="1" as="geometry" />
        </mxCell>
        <mxCell id="vTyGNoZtcdpg6SRQKZWc-16" value="kreira" style="rhombus;whiteSpace=wrap;html=1;rounded=0;labelBackgroundColor=default;" vertex="1" parent="1">
          <mxGeometry x="470" y="290" width="60" height="50" as="geometry" />
        </mxCell>
        <mxCell id="vTyGNoZtcdpg6SRQKZWc-22" value="" style="edgeStyle=none;shape=connector;rounded=0;orthogonalLoop=1;jettySize=auto;html=1;strokeColor=default;align=center;verticalAlign=middle;fontFamily=Helvetica;fontSize=12;fontColor=default;labelBackgroundColor=default;endArrow=none;entryX=1;entryY=0;entryDx=0;entryDy=0;" edge="1" parent="1" source="vTyGNoZtcdpg6SRQKZWc-19" target="vTyGNoZtcdpg6SRQKZWc-13">
          <mxGeometry relative="1" as="geometry" />
        </mxCell>
        <mxCell id="vTyGNoZtcdpg6SRQKZWc-19" value="datum" style="ellipse;whiteSpace=wrap;html=1;strokeColor=default;align=center;verticalAlign=middle;fontFamily=Helvetica;fontSize=12;fontColor=default;labelBackgroundColor=default;fillColor=default;" vertex="1" parent="1">
          <mxGeometry x="530" y="150" width="70" height="30" as="geometry" />
        </mxCell>
        <mxCell id="vTyGNoZtcdpg6SRQKZWc-20" value="komentar" style="ellipse;whiteSpace=wrap;html=1;strokeColor=default;align=center;verticalAlign=middle;fontFamily=Helvetica;fontSize=12;fontColor=default;labelBackgroundColor=default;fillColor=default;" vertex="1" parent="1">
          <mxGeometry x="480" y="110" width="60" height="40" as="geometry" />
        </mxCell>
        <mxCell id="vTyGNoZtcdpg6SRQKZWc-23" value="ime" style="ellipse;whiteSpace=wrap;html=1;" vertex="1" parent="1">
          <mxGeometry x="650" y="450" width="70" height="40" as="geometry" />
        </mxCell>
        <mxCell id="vTyGNoZtcdpg6SRQKZWc-24" value="ime" style="ellipse;whiteSpace=wrap;html=1;" vertex="1" parent="1">
          <mxGeometry x="650" y="450" width="70" height="40" as="geometry" />
        </mxCell>
        <mxCell id="vTyGNoZtcdpg6SRQKZWc-25" value="ime" style="ellipse;whiteSpace=wrap;html=1;" vertex="1" parent="1">
          <mxGeometry x="650" y="450" width="70" height="40" as="geometry" />
        </mxCell>
        <mxCell id="vTyGNoZtcdpg6SRQKZWc-26" value="ime" style="ellipse;whiteSpace=wrap;html=1;" vertex="1" parent="1">
          <mxGeometry x="650" y="450" width="70" height="40" as="geometry" />
        </mxCell>
        <mxCell id="vTyGNoZtcdpg6SRQKZWc-27" value="ime" style="ellipse;whiteSpace=wrap;html=1;" vertex="1" parent="1">
          <mxGeometry x="650" y="450" width="70" height="40" as="geometry" />
        </mxCell>
        <mxCell id="vTyGNoZtcdpg6SRQKZWc-28" value="ime" style="ellipse;whiteSpace=wrap;html=1;" vertex="1" parent="1">
          <mxGeometry x="650" y="450" width="70" height="40" as="geometry" />
        </mxCell>
        <mxCell id="vTyGNoZtcdpg6SRQKZWc-29" value="ime" style="ellipse;whiteSpace=wrap;html=1;" vertex="1" parent="1">
          <mxGeometry x="650" y="450" width="70" height="40" as="geometry" />
        </mxCell>
        <mxCell id="vTyGNoZtcdpg6SRQKZWc-49" value="" style="edgeStyle=none;shape=connector;rounded=0;orthogonalLoop=1;jettySize=auto;html=1;strokeColor=default;align=center;verticalAlign=middle;fontFamily=Helvetica;fontSize=12;fontColor=default;labelBackgroundColor=default;endArrow=none;" edge="1" parent="1" source="vTyGNoZtcdpg6SRQKZWc-30" target="vTyGNoZtcdpg6SRQKZWc-41">
          <mxGeometry relative="1" as="geometry" />
        </mxCell>
        <mxCell id="vTyGNoZtcdpg6SRQKZWc-30" value="ime" style="ellipse;whiteSpace=wrap;html=1;" vertex="1" parent="1">
          <mxGeometry x="200" y="600" width="70" height="40" as="geometry" />
        </mxCell>
        <mxCell id="vTyGNoZtcdpg6SRQKZWc-48" value="" style="edgeStyle=none;shape=connector;rounded=0;orthogonalLoop=1;jettySize=auto;html=1;strokeColor=default;align=center;verticalAlign=middle;fontFamily=Helvetica;fontSize=12;fontColor=default;labelBackgroundColor=default;endArrow=none;" edge="1" parent="1" source="vTyGNoZtcdpg6SRQKZWc-31" target="vTyGNoZtcdpg6SRQKZWc-41">
          <mxGeometry relative="1" as="geometry" />
        </mxCell>
        <mxCell id="vTyGNoZtcdpg6SRQKZWc-31" value="drzava" style="ellipse;whiteSpace=wrap;html=1;" vertex="1" parent="1">
          <mxGeometry x="250" y="545" width="70" height="40" as="geometry" />
        </mxCell>
        <mxCell id="vTyGNoZtcdpg6SRQKZWc-47" value="" style="edgeStyle=none;shape=connector;rounded=0;orthogonalLoop=1;jettySize=auto;html=1;strokeColor=default;align=center;verticalAlign=middle;fontFamily=Helvetica;fontSize=12;fontColor=default;labelBackgroundColor=default;endArrow=none;" edge="1" parent="1" source="vTyGNoZtcdpg6SRQKZWc-32" target="vTyGNoZtcdpg6SRQKZWc-34">
          <mxGeometry relative="1" as="geometry" />
        </mxCell>
        <mxCell id="vTyGNoZtcdpg6SRQKZWc-32" value="sirina" style="ellipse;whiteSpace=wrap;html=1;" vertex="1" parent="1">
          <mxGeometry x="770" y="660" width="70" height="40" as="geometry" />
        </mxCell>
        <mxCell id="vTyGNoZtcdpg6SRQKZWc-46" style="edgeStyle=none;shape=connector;rounded=0;orthogonalLoop=1;jettySize=auto;html=1;exitX=0;exitY=1;exitDx=0;exitDy=0;entryX=0.5;entryY=0;entryDx=0;entryDy=0;strokeColor=default;align=center;verticalAlign=middle;fontFamily=Helvetica;fontSize=12;fontColor=default;labelBackgroundColor=default;endArrow=none;" edge="1" parent="1" source="vTyGNoZtcdpg6SRQKZWc-33" target="vTyGNoZtcdpg6SRQKZWc-34">
          <mxGeometry relative="1" as="geometry" />
        </mxCell>
        <mxCell id="vTyGNoZtcdpg6SRQKZWc-33" value="dolzina" style="ellipse;whiteSpace=wrap;html=1;" vertex="1" parent="1">
          <mxGeometry x="740" y="570" width="70" height="40" as="geometry" />
        </mxCell>
        <mxCell id="vTyGNoZtcdpg6SRQKZWc-45" style="edgeStyle=none;shape=connector;rounded=0;orthogonalLoop=1;jettySize=auto;html=1;exitX=0;exitY=0.5;exitDx=0;exitDy=0;entryX=1;entryY=0.5;entryDx=0;entryDy=0;strokeColor=default;align=center;verticalAlign=middle;fontFamily=Helvetica;fontSize=12;fontColor=default;labelBackgroundColor=default;endArrow=none;" edge="1" parent="1" source="vTyGNoZtcdpg6SRQKZWc-34" target="vTyGNoZtcdpg6SRQKZWc-42">
          <mxGeometry relative="1" as="geometry" />
        </mxCell>
        <mxCell id="vTyGNoZtcdpg6SRQKZWc-34" value="geo.&amp;nbsp;&lt;div&gt;l&lt;span style=&quot;background-color: transparent; color: light-dark(rgb(0, 0, 0), rgb(255, 255, 255));&quot;&gt;okacija&lt;/span&gt;&lt;/div&gt;" style="ellipse;whiteSpace=wrap;html=1;" vertex="1" parent="1">
          <mxGeometry x="687" y="620" width="70" height="40" as="geometry" />
        </mxCell>
        <mxCell id="vTyGNoZtcdpg6SRQKZWc-44" style="edgeStyle=none;shape=connector;rounded=0;orthogonalLoop=1;jettySize=auto;html=1;exitX=0;exitY=1;exitDx=0;exitDy=0;entryX=0.75;entryY=0;entryDx=0;entryDy=0;strokeColor=default;align=center;verticalAlign=middle;fontFamily=Helvetica;fontSize=12;fontColor=default;labelBackgroundColor=default;endArrow=none;" edge="1" parent="1" source="vTyGNoZtcdpg6SRQKZWc-35" target="vTyGNoZtcdpg6SRQKZWc-42">
          <mxGeometry relative="1" as="geometry" />
        </mxCell>
        <mxCell id="vTyGNoZtcdpg6SRQKZWc-35" value="adresa" style="ellipse;whiteSpace=wrap;html=1;" vertex="1" parent="1">
          <mxGeometry x="670" y="520" width="70" height="40" as="geometry" />
        </mxCell>
        <mxCell id="vTyGNoZtcdpg6SRQKZWc-43" style="edgeStyle=none;shape=connector;rounded=0;orthogonalLoop=1;jettySize=auto;html=1;exitX=0.5;exitY=1;exitDx=0;exitDy=0;entryX=0.5;entryY=0;entryDx=0;entryDy=0;strokeColor=default;align=center;verticalAlign=middle;fontFamily=Helvetica;fontSize=12;fontColor=default;labelBackgroundColor=default;endArrow=none;" edge="1" parent="1" source="vTyGNoZtcdpg6SRQKZWc-36" target="vTyGNoZtcdpg6SRQKZWc-42">
          <mxGeometry relative="1" as="geometry" />
        </mxCell>
        <mxCell id="vTyGNoZtcdpg6SRQKZWc-36" value="ime" style="ellipse;whiteSpace=wrap;html=1;" vertex="1" parent="1">
          <mxGeometry x="570" y="530" width="70" height="40" as="geometry" />
        </mxCell>
        <mxCell id="vTyGNoZtcdpg6SRQKZWc-38" style="edgeStyle=none;shape=connector;rounded=0;orthogonalLoop=1;jettySize=auto;html=1;exitX=0.5;exitY=1;exitDx=0;exitDy=0;entryX=0.75;entryY=0;entryDx=0;entryDy=0;strokeColor=default;align=center;verticalAlign=middle;fontFamily=Helvetica;fontSize=12;fontColor=default;labelBackgroundColor=default;endArrow=none;" edge="1" parent="1" source="vTyGNoZtcdpg6SRQKZWc-37" target="vTyGNoZtcdpg6SRQKZWc-12">
          <mxGeometry relative="1" as="geometry" />
        </mxCell>
        <mxCell id="vTyGNoZtcdpg6SRQKZWc-37" value="datum na kreiranje" style="ellipse;whiteSpace=wrap;html=1;" vertex="1" parent="1">
          <mxGeometry x="660" y="120" width="90" height="40" as="geometry" />
        </mxCell>
        <mxCell id="vTyGNoZtcdpg6SRQKZWc-39" style="edgeStyle=none;shape=connector;rounded=0;orthogonalLoop=1;jettySize=auto;html=1;exitX=0.5;exitY=1;exitDx=0;exitDy=0;entryX=0.383;entryY=0.018;entryDx=0;entryDy=0;entryPerimeter=0;strokeColor=default;align=center;verticalAlign=middle;fontFamily=Helvetica;fontSize=12;fontColor=default;labelBackgroundColor=default;endArrow=none;" edge="1" parent="1" source="Cw1JEO6UzoWqQZHTHkFN-5" target="vTyGNoZtcdpg6SRQKZWc-12">
          <mxGeometry relative="1" as="geometry" />
        </mxCell>
        <mxCell id="vTyGNoZtcdpg6SRQKZWc-40" value="TURISTICKO MESTO" style="rounded=0;whiteSpace=wrap;html=1;strokeColor=default;align=center;verticalAlign=middle;fontFamily=Helvetica;fontSize=12;fontColor=default;labelBackgroundColor=default;fillColor=default;" vertex="1" parent="1">
          <mxGeometry x="410" y="410" width="120" height="60" as="geometry" />
        </mxCell>
        <mxCell id="vTyGNoZtcdpg6SRQKZWc-41" value="GRAD" style="rounded=0;whiteSpace=wrap;html=1;strokeColor=default;align=center;verticalAlign=middle;fontFamily=Helvetica;fontSize=12;fontColor=default;labelBackgroundColor=default;fillColor=default;" vertex="1" parent="1">
          <mxGeometry x="310" y="610" width="120" height="60" as="geometry" />
        </mxCell>
        <mxCell id="vTyGNoZtcdpg6SRQKZWc-42" value="OBJEKT" style="rounded=0;whiteSpace=wrap;html=1;strokeColor=default;align=center;verticalAlign=middle;fontFamily=Helvetica;fontSize=12;fontColor=default;labelBackgroundColor=default;fillColor=default;" vertex="1" parent="1">
          <mxGeometry x="530" y="610" width="120" height="60" as="geometry" />
        </mxCell>
        <mxCell id="vTyGNoZtcdpg6SRQKZWc-51" value="" style="edgeStyle=none;shape=connector;rounded=0;orthogonalLoop=1;jettySize=auto;html=1;strokeColor=default;align=center;verticalAlign=middle;fontFamily=Helvetica;fontSize=12;fontColor=default;labelBackgroundColor=default;endArrow=none;" edge="1" parent="1" source="vTyGNoZtcdpg6SRQKZWc-50" target="vTyGNoZtcdpg6SRQKZWc-40">
          <mxGeometry relative="1" as="geometry" />
        </mxCell>
        <mxCell id="vTyGNoZtcdpg6SRQKZWc-50" value="d" style="ellipse;whiteSpace=wrap;html=1;aspect=fixed;strokeColor=default;align=center;verticalAlign=middle;fontFamily=Helvetica;fontSize=12;fontColor=default;labelBackgroundColor=default;fillColor=default;" vertex="1" parent="1">
          <mxGeometry x="460" y="520" width="30" height="30" as="geometry" />
        </mxCell>
      </root>
    </mxGraphModel>
  </diagram>
  <diagram id="vBd0J0QNS_kdUKVeGjYM" name="Page-2">
    <mxGraphModel dx="834" dy="846" grid="1" gridSize="10" guides="1" tooltips="1" connect="1" arrows="1" fold="1" page="1" pageScale="1" pageWidth="827" pageHeight="1169" math="0" shadow="0">
      <root>
        <mxCell id="0" />
        <mxCell id="1" parent="0" />
        <mxCell id="loqaQ0z4b2VS86a6ckQr-11" value="" style="edgeStyle=none;shape=connector;rounded=0;orthogonalLoop=1;jettySize=auto;html=1;strokeColor=default;align=center;verticalAlign=middle;fontFamily=Helvetica;fontSize=12;fontColor=default;labelBackgroundColor=default;endArrow=none;" edge="1" parent="1" source="TeIeKEtfFJ5j0w1cXCWO-11" target="loqaQ0z4b2VS86a6ckQr-6">
          <mxGeometry relative="1" as="geometry" />
        </mxCell>
        <mxCell id="TeIeKEtfFJ5j0w1cXCWO-11" value="goidna" style="ellipse;whiteSpace=wrap;html=1;strokeColor=default;align=center;verticalAlign=middle;fontFamily=Helvetica;fontSize=12;fontColor=default;labelBackgroundColor=default;fillColor=default;" vertex="1" parent="1">
          <mxGeometry x="310" y="310" width="60" height="40" as="geometry" />
        </mxCell>
        <mxCell id="loqaQ0z4b2VS86a6ckQr-12" value="" style="edgeStyle=none;shape=connector;rounded=0;orthogonalLoop=1;jettySize=auto;html=1;strokeColor=default;align=center;verticalAlign=middle;fontFamily=Helvetica;fontSize=12;fontColor=default;labelBackgroundColor=default;endArrow=none;" edge="1" parent="1" source="TeIeKEtfFJ5j0w1cXCWO-12" target="loqaQ0z4b2VS86a6ckQr-6">
          <mxGeometry relative="1" as="geometry" />
        </mxCell>
        <mxCell id="TeIeKEtfFJ5j0w1cXCWO-12" value="ime" style="ellipse;whiteSpace=wrap;html=1;strokeColor=default;align=center;verticalAlign=middle;fontFamily=Helvetica;fontSize=12;fontColor=default;labelBackgroundColor=default;fillColor=default;" vertex="1" parent="1">
          <mxGeometry x="170" y="300" width="60" height="40" as="geometry" />
        </mxCell>
        <mxCell id="TeIeKEtfFJ5j0w1cXCWO-13" value="sifra" style="ellipse;whiteSpace=wrap;html=1;strokeColor=default;align=center;verticalAlign=middle;fontFamily=Helvetica;fontSize=12;fontColor=default;labelBackgroundColor=default;fillColor=default;" vertex="1" parent="1">
          <mxGeometry x="240" y="280" width="60" height="40" as="geometry" />
        </mxCell>
        <mxCell id="TeIeKEtfFJ5j0w1cXCWO-42" value="" style="group" vertex="1" connectable="0" parent="1">
          <mxGeometry x="527" y="50" width="300" height="200" as="geometry" />
        </mxCell>
        <mxCell id="TeIeKEtfFJ5j0w1cXCWO-41" style="edgeStyle=none;shape=connector;rounded=0;orthogonalLoop=1;jettySize=auto;html=1;exitX=0;exitY=0.5;exitDx=0;exitDy=0;entryX=1;entryY=0.5;entryDx=0;entryDy=0;strokeColor=default;align=center;verticalAlign=middle;fontFamily=Helvetica;fontSize=12;fontColor=default;labelBackgroundColor=default;endArrow=none;" edge="1" parent="TeIeKEtfFJ5j0w1cXCWO-42" source="TeIeKEtfFJ5j0w1cXCWO-14" target="TeIeKEtfFJ5j0w1cXCWO-16">
          <mxGeometry relative="1" as="geometry" />
        </mxCell>
        <mxCell id="TeIeKEtfFJ5j0w1cXCWO-14" value="do" style="ellipse;whiteSpace=wrap;html=1;strokeColor=default;align=center;verticalAlign=middle;fontFamily=Helvetica;fontSize=12;fontColor=default;labelBackgroundColor=default;fillColor=default;" vertex="1" parent="TeIeKEtfFJ5j0w1cXCWO-42">
          <mxGeometry x="240" y="90" width="60" height="40" as="geometry" />
        </mxCell>
        <mxCell id="TeIeKEtfFJ5j0w1cXCWO-40" style="edgeStyle=none;shape=connector;rounded=0;orthogonalLoop=1;jettySize=auto;html=1;exitX=0;exitY=1;exitDx=0;exitDy=0;entryX=0.5;entryY=0;entryDx=0;entryDy=0;strokeColor=default;align=center;verticalAlign=middle;fontFamily=Helvetica;fontSize=12;fontColor=default;labelBackgroundColor=default;endArrow=none;" edge="1" parent="TeIeKEtfFJ5j0w1cXCWO-42" source="TeIeKEtfFJ5j0w1cXCWO-15" target="TeIeKEtfFJ5j0w1cXCWO-16">
          <mxGeometry relative="1" as="geometry" />
        </mxCell>
        <mxCell id="TeIeKEtfFJ5j0w1cXCWO-15" value="od" style="ellipse;whiteSpace=wrap;html=1;strokeColor=default;align=center;verticalAlign=middle;fontFamily=Helvetica;fontSize=12;fontColor=default;labelBackgroundColor=default;fillColor=default;" vertex="1" parent="TeIeKEtfFJ5j0w1cXCWO-42">
          <mxGeometry x="200" y="40" width="60" height="40" as="geometry" />
        </mxCell>
        <mxCell id="TeIeKEtfFJ5j0w1cXCWO-39" style="edgeStyle=none;shape=connector;rounded=0;orthogonalLoop=1;jettySize=auto;html=1;exitX=0;exitY=1;exitDx=0;exitDy=0;entryX=0.75;entryY=0;entryDx=0;entryDy=0;strokeColor=default;align=center;verticalAlign=middle;fontFamily=Helvetica;fontSize=12;fontColor=default;labelBackgroundColor=default;endArrow=none;" edge="1" parent="TeIeKEtfFJ5j0w1cXCWO-42" source="TeIeKEtfFJ5j0w1cXCWO-16" target="TeIeKEtfFJ5j0w1cXCWO-34">
          <mxGeometry relative="1" as="geometry" />
        </mxCell>
        <mxCell id="TeIeKEtfFJ5j0w1cXCWO-16" value="datum" style="ellipse;whiteSpace=wrap;html=1;strokeColor=default;align=center;verticalAlign=middle;fontFamily=Helvetica;fontSize=12;fontColor=default;labelBackgroundColor=default;fillColor=default;" vertex="1" parent="TeIeKEtfFJ5j0w1cXCWO-42">
          <mxGeometry x="160" y="90" width="60" height="40" as="geometry" />
        </mxCell>
        <mxCell id="TeIeKEtfFJ5j0w1cXCWO-38" value="" style="edgeStyle=none;shape=connector;rounded=0;orthogonalLoop=1;jettySize=auto;html=1;strokeColor=default;align=center;verticalAlign=middle;fontFamily=Helvetica;fontSize=12;fontColor=default;labelBackgroundColor=default;endArrow=none;" edge="1" parent="TeIeKEtfFJ5j0w1cXCWO-42" source="TeIeKEtfFJ5j0w1cXCWO-17" target="TeIeKEtfFJ5j0w1cXCWO-34">
          <mxGeometry relative="1" as="geometry" />
        </mxCell>
        <mxCell id="TeIeKEtfFJ5j0w1cXCWO-17" value="prostorija" style="ellipse;whiteSpace=wrap;html=1;strokeColor=default;align=center;verticalAlign=middle;fontFamily=Helvetica;fontSize=12;fontColor=default;labelBackgroundColor=default;fillColor=default;" vertex="1" parent="TeIeKEtfFJ5j0w1cXCWO-42">
          <mxGeometry x="140" width="60" height="40" as="geometry" />
        </mxCell>
        <mxCell id="TeIeKEtfFJ5j0w1cXCWO-37" value="" style="edgeStyle=none;shape=connector;rounded=0;orthogonalLoop=1;jettySize=auto;html=1;strokeColor=default;align=center;verticalAlign=middle;fontFamily=Helvetica;fontSize=12;fontColor=default;labelBackgroundColor=default;endArrow=none;" edge="1" parent="TeIeKEtfFJ5j0w1cXCWO-42" source="TeIeKEtfFJ5j0w1cXCWO-18" target="TeIeKEtfFJ5j0w1cXCWO-34">
          <mxGeometry relative="1" as="geometry" />
        </mxCell>
        <mxCell id="TeIeKEtfFJ5j0w1cXCWO-18" value="sprat" style="ellipse;whiteSpace=wrap;html=1;strokeColor=default;align=center;verticalAlign=middle;fontFamily=Helvetica;fontSize=12;fontColor=default;labelBackgroundColor=default;fillColor=default;" vertex="1" parent="TeIeKEtfFJ5j0w1cXCWO-42">
          <mxGeometry x="80" y="40" width="60" height="40" as="geometry" />
        </mxCell>
        <mxCell id="TeIeKEtfFJ5j0w1cXCWO-19" value="opis" style="ellipse;whiteSpace=wrap;html=1;strokeColor=default;align=center;verticalAlign=middle;fontFamily=Helvetica;fontSize=12;fontColor=default;labelBackgroundColor=default;fillColor=default;" vertex="1" parent="TeIeKEtfFJ5j0w1cXCWO-42">
          <mxGeometry x="30" y="10" width="60" height="40" as="geometry" />
        </mxCell>
        <mxCell id="TeIeKEtfFJ5j0w1cXCWO-20" value="ime" style="ellipse;whiteSpace=wrap;html=1;strokeColor=default;align=center;verticalAlign=middle;fontFamily=Helvetica;fontSize=12;fontColor=default;labelBackgroundColor=default;fillColor=default;" vertex="1" parent="TeIeKEtfFJ5j0w1cXCWO-42">
          <mxGeometry y="60" width="60" height="40" as="geometry" />
        </mxCell>
        <mxCell id="TeIeKEtfFJ5j0w1cXCWO-34" value="IZLOZBI" style="rounded=0;whiteSpace=wrap;html=1;strokeColor=default;align=center;verticalAlign=middle;fontFamily=Helvetica;fontSize=12;fontColor=default;labelBackgroundColor=default;fillColor=default;" vertex="1" parent="TeIeKEtfFJ5j0w1cXCWO-42">
          <mxGeometry x="40" y="140" width="120" height="60" as="geometry" />
        </mxCell>
        <mxCell id="TeIeKEtfFJ5j0w1cXCWO-35" style="edgeStyle=none;shape=connector;rounded=0;orthogonalLoop=1;jettySize=auto;html=1;exitX=0.5;exitY=1;exitDx=0;exitDy=0;entryX=0.158;entryY=0.065;entryDx=0;entryDy=0;entryPerimeter=0;strokeColor=default;align=center;verticalAlign=middle;fontFamily=Helvetica;fontSize=12;fontColor=default;labelBackgroundColor=default;endArrow=none;" edge="1" parent="TeIeKEtfFJ5j0w1cXCWO-42" source="TeIeKEtfFJ5j0w1cXCWO-20" target="TeIeKEtfFJ5j0w1cXCWO-34">
          <mxGeometry relative="1" as="geometry" />
        </mxCell>
        <mxCell id="TeIeKEtfFJ5j0w1cXCWO-36" style="edgeStyle=none;shape=connector;rounded=0;orthogonalLoop=1;jettySize=auto;html=1;entryX=0.36;entryY=0.037;entryDx=0;entryDy=0;entryPerimeter=0;strokeColor=default;align=center;verticalAlign=middle;fontFamily=Helvetica;fontSize=12;fontColor=default;labelBackgroundColor=default;endArrow=none;exitX=0.5;exitY=1;exitDx=0;exitDy=0;" edge="1" parent="TeIeKEtfFJ5j0w1cXCWO-42" source="TeIeKEtfFJ5j0w1cXCWO-19" target="TeIeKEtfFJ5j0w1cXCWO-34">
          <mxGeometry relative="1" as="geometry">
            <mxPoint x="90" y="60" as="sourcePoint" />
          </mxGeometry>
        </mxCell>
        <mxCell id="TeIeKEtfFJ5j0w1cXCWO-43" value="" style="group" vertex="1" connectable="0" parent="1">
          <mxGeometry x="50" y="60" width="300" height="190" as="geometry" />
        </mxCell>
        <mxCell id="TeIeKEtfFJ5j0w1cXCWO-1" value="MUZEJ" style="rounded=0;whiteSpace=wrap;html=1;strokeColor=default;align=center;verticalAlign=middle;fontFamily=Helvetica;fontSize=12;fontColor=default;labelBackgroundColor=default;fillColor=default;" vertex="1" parent="TeIeKEtfFJ5j0w1cXCWO-43">
          <mxGeometry x="110" y="130" width="120" height="60" as="geometry" />
        </mxCell>
        <mxCell id="TeIeKEtfFJ5j0w1cXCWO-2" value="ime" style="ellipse;whiteSpace=wrap;html=1;strokeColor=default;align=center;verticalAlign=middle;fontFamily=Helvetica;fontSize=12;fontColor=default;labelBackgroundColor=default;fillColor=default;" vertex="1" parent="TeIeKEtfFJ5j0w1cXCWO-43">
          <mxGeometry y="70" width="60" height="40" as="geometry" />
        </mxCell>
        <mxCell id="TeIeKEtfFJ5j0w1cXCWO-33" style="edgeStyle=none;shape=connector;rounded=0;orthogonalLoop=1;jettySize=auto;html=1;exitX=0;exitY=1;exitDx=0;exitDy=0;entryX=0.75;entryY=0;entryDx=0;entryDy=0;strokeColor=default;align=center;verticalAlign=middle;fontFamily=Helvetica;fontSize=12;fontColor=default;labelBackgroundColor=default;endArrow=none;" edge="1" parent="TeIeKEtfFJ5j0w1cXCWO-43" source="TeIeKEtfFJ5j0w1cXCWO-21" target="TeIeKEtfFJ5j0w1cXCWO-1">
          <mxGeometry relative="1" as="geometry" />
        </mxCell>
        <mxCell id="TeIeKEtfFJ5j0w1cXCWO-21" value="tip" style="ellipse;whiteSpace=wrap;html=1;strokeColor=default;align=center;verticalAlign=middle;fontFamily=Helvetica;fontSize=12;fontColor=default;labelBackgroundColor=default;fillColor=default;" vertex="1" parent="TeIeKEtfFJ5j0w1cXCWO-43">
          <mxGeometry x="240" y="10" width="60" height="40" as="geometry" />
        </mxCell>
        <mxCell id="TeIeKEtfFJ5j0w1cXCWO-32" value="" style="edgeStyle=none;shape=connector;rounded=0;orthogonalLoop=1;jettySize=auto;html=1;strokeColor=default;align=center;verticalAlign=middle;fontFamily=Helvetica;fontSize=12;fontColor=default;labelBackgroundColor=default;endArrow=none;" edge="1" parent="TeIeKEtfFJ5j0w1cXCWO-43" source="TeIeKEtfFJ5j0w1cXCWO-22" target="TeIeKEtfFJ5j0w1cXCWO-1">
          <mxGeometry relative="1" as="geometry" />
        </mxCell>
        <mxCell id="TeIeKEtfFJ5j0w1cXCWO-22" value="grad" style="ellipse;whiteSpace=wrap;html=1;strokeColor=default;align=center;verticalAlign=middle;fontFamily=Helvetica;fontSize=12;fontColor=default;labelBackgroundColor=default;fillColor=default;" vertex="1" parent="TeIeKEtfFJ5j0w1cXCWO-43">
          <mxGeometry x="170" y="40" width="60" height="40" as="geometry" />
        </mxCell>
        <mxCell id="TeIeKEtfFJ5j0w1cXCWO-31" value="" style="edgeStyle=none;shape=connector;rounded=0;orthogonalLoop=1;jettySize=auto;html=1;strokeColor=default;align=center;verticalAlign=middle;fontFamily=Helvetica;fontSize=12;fontColor=default;labelBackgroundColor=default;endArrow=none;entryX=0.333;entryY=0;entryDx=0;entryDy=0;entryPerimeter=0;" edge="1" parent="TeIeKEtfFJ5j0w1cXCWO-43" source="TeIeKEtfFJ5j0w1cXCWO-23" target="TeIeKEtfFJ5j0w1cXCWO-1">
          <mxGeometry relative="1" as="geometry" />
        </mxCell>
        <mxCell id="TeIeKEtfFJ5j0w1cXCWO-23" value="rab.&amp;nbsp;&lt;div&gt;vreme&lt;/div&gt;" style="ellipse;whiteSpace=wrap;html=1;strokeColor=default;align=center;verticalAlign=middle;fontFamily=Helvetica;fontSize=12;fontColor=default;labelBackgroundColor=default;fillColor=default;" vertex="1" parent="TeIeKEtfFJ5j0w1cXCWO-43">
          <mxGeometry x="120" width="60" height="40" as="geometry" />
        </mxCell>
        <mxCell id="TeIeKEtfFJ5j0w1cXCWO-24" value="opis" style="ellipse;whiteSpace=wrap;html=1;strokeColor=default;align=center;verticalAlign=middle;fontFamily=Helvetica;fontSize=12;fontColor=default;labelBackgroundColor=default;fillColor=default;" vertex="1" parent="TeIeKEtfFJ5j0w1cXCWO-43">
          <mxGeometry x="80" y="50" width="60" height="40" as="geometry" />
        </mxCell>
        <mxCell id="TeIeKEtfFJ5j0w1cXCWO-29" style="edgeStyle=none;shape=connector;rounded=0;orthogonalLoop=1;jettySize=auto;html=1;exitX=1;exitY=1;exitDx=0;exitDy=0;entryX=0;entryY=0;entryDx=0;entryDy=0;strokeColor=default;align=center;verticalAlign=middle;fontFamily=Helvetica;fontSize=12;fontColor=default;labelBackgroundColor=default;endArrow=none;" edge="1" parent="TeIeKEtfFJ5j0w1cXCWO-43" source="TeIeKEtfFJ5j0w1cXCWO-25" target="TeIeKEtfFJ5j0w1cXCWO-1">
          <mxGeometry relative="1" as="geometry" />
        </mxCell>
        <mxCell id="TeIeKEtfFJ5j0w1cXCWO-25" value="sifra" style="ellipse;whiteSpace=wrap;html=1;strokeColor=default;align=center;verticalAlign=middle;fontFamily=Helvetica;fontSize=12;fontColor=default;labelBackgroundColor=default;fillColor=default;" vertex="1" parent="TeIeKEtfFJ5j0w1cXCWO-43">
          <mxGeometry x="10" y="20" width="60" height="40" as="geometry" />
        </mxCell>
        <mxCell id="TeIeKEtfFJ5j0w1cXCWO-28" style="edgeStyle=none;shape=connector;rounded=0;orthogonalLoop=1;jettySize=auto;html=1;exitX=1;exitY=1;exitDx=0;exitDy=0;entryX=0.003;entryY=0.378;entryDx=0;entryDy=0;entryPerimeter=0;strokeColor=default;align=center;verticalAlign=middle;fontFamily=Helvetica;fontSize=12;fontColor=default;labelBackgroundColor=default;endArrow=none;" edge="1" parent="TeIeKEtfFJ5j0w1cXCWO-43" source="TeIeKEtfFJ5j0w1cXCWO-2" target="TeIeKEtfFJ5j0w1cXCWO-1">
          <mxGeometry relative="1" as="geometry" />
        </mxCell>
        <mxCell id="TeIeKEtfFJ5j0w1cXCWO-30" style="edgeStyle=none;shape=connector;rounded=0;orthogonalLoop=1;jettySize=auto;html=1;exitX=0.5;exitY=1;exitDx=0;exitDy=0;entryX=0.169;entryY=-0.011;entryDx=0;entryDy=0;entryPerimeter=0;strokeColor=default;align=center;verticalAlign=middle;fontFamily=Helvetica;fontSize=12;fontColor=default;labelBackgroundColor=default;endArrow=none;" edge="1" parent="TeIeKEtfFJ5j0w1cXCWO-43" source="TeIeKEtfFJ5j0w1cXCWO-24" target="TeIeKEtfFJ5j0w1cXCWO-1">
          <mxGeometry relative="1" as="geometry" />
        </mxCell>
        <mxCell id="TeIeKEtfFJ5j0w1cXCWO-45" value="1" style="edgeStyle=none;shape=connector;rounded=0;orthogonalLoop=1;jettySize=auto;html=1;strokeColor=default;align=center;verticalAlign=middle;fontFamily=Helvetica;fontSize=12;fontColor=default;labelBackgroundColor=default;endArrow=none;" edge="1" parent="1" source="TeIeKEtfFJ5j0w1cXCWO-44" target="TeIeKEtfFJ5j0w1cXCWO-1">
          <mxGeometry relative="1" as="geometry" />
        </mxCell>
        <mxCell id="TeIeKEtfFJ5j0w1cXCWO-46" value="N" style="edgeStyle=none;shape=connector;rounded=0;orthogonalLoop=1;jettySize=auto;html=1;exitX=1;exitY=0.5;exitDx=0;exitDy=0;entryX=0;entryY=0.5;entryDx=0;entryDy=0;strokeColor=default;align=center;verticalAlign=middle;fontFamily=Helvetica;fontSize=12;fontColor=default;labelBackgroundColor=default;endArrow=none;" edge="1" parent="1" source="TeIeKEtfFJ5j0w1cXCWO-44" target="TeIeKEtfFJ5j0w1cXCWO-34">
          <mxGeometry relative="1" as="geometry" />
        </mxCell>
        <mxCell id="TeIeKEtfFJ5j0w1cXCWO-44" value="ima" style="rhombus;whiteSpace=wrap;html=1;strokeColor=default;align=center;verticalAlign=middle;fontFamily=Helvetica;fontSize=12;fontColor=default;labelBackgroundColor=default;fillColor=default;" vertex="1" parent="1">
          <mxGeometry x="384" y="190" width="60" height="60" as="geometry" />
        </mxCell>
        <mxCell id="TeIeKEtfFJ5j0w1cXCWO-47" value="IZLOZBA NA UMETNISCKI DELA" style="rounded=0;whiteSpace=wrap;html=1;strokeColor=default;align=center;verticalAlign=middle;fontFamily=Helvetica;fontSize=12;fontColor=default;labelBackgroundColor=default;fillColor=default;" vertex="1" parent="1">
          <mxGeometry x="480" y="360" width="120" height="60" as="geometry" />
        </mxCell>
        <mxCell id="TeIeKEtfFJ5j0w1cXCWO-48" value="IZLOZBA NA TEHNOLOSKI DOSTIGNUVANJA" style="rounded=0;whiteSpace=wrap;html=1;strokeColor=default;align=center;verticalAlign=middle;fontFamily=Helvetica;fontSize=12;fontColor=default;labelBackgroundColor=default;fillColor=default;" vertex="1" parent="1">
          <mxGeometry x="660" y="360" width="120" height="60" as="geometry" />
        </mxCell>
        <mxCell id="TeIeKEtfFJ5j0w1cXCWO-51" value="" style="edgeStyle=none;shape=connector;rounded=0;orthogonalLoop=1;jettySize=auto;html=1;strokeColor=default;align=center;verticalAlign=middle;fontFamily=Helvetica;fontSize=12;fontColor=default;labelBackgroundColor=default;endArrow=none;" edge="1" parent="1" source="TeIeKEtfFJ5j0w1cXCWO-50" target="TeIeKEtfFJ5j0w1cXCWO-34">
          <mxGeometry relative="1" as="geometry" />
        </mxCell>
        <mxCell id="TeIeKEtfFJ5j0w1cXCWO-52" style="edgeStyle=none;shape=connector;rounded=0;orthogonalLoop=1;jettySize=auto;html=1;exitX=0;exitY=1;exitDx=0;exitDy=0;entryX=0.5;entryY=0;entryDx=0;entryDy=0;strokeColor=default;align=center;verticalAlign=middle;fontFamily=Helvetica;fontSize=12;fontColor=default;labelBackgroundColor=default;endArrow=none;" edge="1" parent="1" source="TeIeKEtfFJ5j0w1cXCWO-50" target="TeIeKEtfFJ5j0w1cXCWO-47">
          <mxGeometry relative="1" as="geometry" />
        </mxCell>
        <mxCell id="TeIeKEtfFJ5j0w1cXCWO-50" value="d" style="ellipse;whiteSpace=wrap;html=1;aspect=fixed;strokeColor=default;align=center;verticalAlign=middle;fontFamily=Helvetica;fontSize=12;fontColor=default;labelBackgroundColor=default;fillColor=default;" vertex="1" parent="1">
          <mxGeometry x="612" y="290" width="30" height="30" as="geometry" />
        </mxCell>
        <mxCell id="TeIeKEtfFJ5j0w1cXCWO-53" style="edgeStyle=none;shape=connector;rounded=0;orthogonalLoop=1;jettySize=auto;html=1;exitX=1;exitY=1;exitDx=0;exitDy=0;entryX=0.418;entryY=-0.059;entryDx=0;entryDy=0;entryPerimeter=0;strokeColor=default;align=center;verticalAlign=middle;fontFamily=Helvetica;fontSize=12;fontColor=default;labelBackgroundColor=default;endArrow=none;" edge="1" parent="1" source="TeIeKEtfFJ5j0w1cXCWO-50" target="TeIeKEtfFJ5j0w1cXCWO-48">
          <mxGeometry relative="1" as="geometry" />
        </mxCell>
        <mxCell id="loqaQ0z4b2VS86a6ckQr-20" value="" style="edgeStyle=none;shape=connector;rounded=0;orthogonalLoop=1;jettySize=auto;html=1;strokeColor=default;align=center;verticalAlign=middle;fontFamily=Helvetica;fontSize=12;fontColor=default;labelBackgroundColor=default;endArrow=none;" edge="1" parent="1" source="TeIeKEtfFJ5j0w1cXCWO-54" target="loqaQ0z4b2VS86a6ckQr-3">
          <mxGeometry relative="1" as="geometry" />
        </mxCell>
        <mxCell id="TeIeKEtfFJ5j0w1cXCWO-54" value="OBJEKTI" style="rounded=0;whiteSpace=wrap;html=1;strokeColor=default;align=center;verticalAlign=middle;fontFamily=Helvetica;fontSize=12;fontColor=default;labelBackgroundColor=default;fillColor=default;" vertex="1" parent="1">
          <mxGeometry x="950" y="365" width="120" height="60" as="geometry" />
        </mxCell>
        <mxCell id="loqaQ0z4b2VS86a6ckQr-2" value="" style="edgeStyle=none;shape=connector;rounded=0;orthogonalLoop=1;jettySize=auto;html=1;strokeColor=default;align=center;verticalAlign=middle;fontFamily=Helvetica;fontSize=12;fontColor=default;labelBackgroundColor=default;endArrow=none;" edge="1" parent="1" source="loqaQ0z4b2VS86a6ckQr-1" target="TeIeKEtfFJ5j0w1cXCWO-54">
          <mxGeometry relative="1" as="geometry" />
        </mxCell>
        <mxCell id="loqaQ0z4b2VS86a6ckQr-1" value="ime" style="ellipse;whiteSpace=wrap;html=1;strokeColor=default;align=center;verticalAlign=middle;fontFamily=Helvetica;fontSize=12;fontColor=default;labelBackgroundColor=default;fillColor=default;" vertex="1" parent="1">
          <mxGeometry x="950" y="300" width="60" height="40" as="geometry" />
        </mxCell>
        <mxCell id="loqaQ0z4b2VS86a6ckQr-4" value="1" style="edgeStyle=none;shape=connector;rounded=0;orthogonalLoop=1;jettySize=auto;html=1;strokeColor=default;align=center;verticalAlign=middle;fontFamily=Helvetica;fontSize=12;fontColor=default;labelBackgroundColor=default;endArrow=none;" edge="1" parent="1" source="loqaQ0z4b2VS86a6ckQr-3" target="TeIeKEtfFJ5j0w1cXCWO-48">
          <mxGeometry relative="1" as="geometry" />
        </mxCell>
        <mxCell id="loqaQ0z4b2VS86a6ckQr-5" value="N" style="edgeStyle=none;shape=connector;rounded=0;orthogonalLoop=1;jettySize=auto;html=1;strokeColor=default;align=center;verticalAlign=middle;fontFamily=Helvetica;fontSize=12;fontColor=default;labelBackgroundColor=default;endArrow=none;" edge="1" parent="1" source="loqaQ0z4b2VS86a6ckQr-3" target="TeIeKEtfFJ5j0w1cXCWO-54">
          <mxGeometry relative="1" as="geometry" />
        </mxCell>
        <mxCell id="loqaQ0z4b2VS86a6ckQr-3" value="izlozeni" style="rhombus;whiteSpace=wrap;html=1;strokeColor=default;align=center;verticalAlign=middle;fontFamily=Helvetica;fontSize=12;fontColor=default;labelBackgroundColor=default;fillColor=default;" vertex="1" parent="1">
          <mxGeometry x="830" y="370" width="60" height="50" as="geometry" />
        </mxCell>
        <mxCell id="loqaQ0z4b2VS86a6ckQr-8" value="N" style="edgeStyle=none;shape=connector;rounded=0;orthogonalLoop=1;jettySize=auto;html=1;strokeColor=default;align=center;verticalAlign=middle;fontFamily=Helvetica;fontSize=12;fontColor=default;labelBackgroundColor=default;endArrow=none;" edge="1" parent="1" source="loqaQ0z4b2VS86a6ckQr-6" target="loqaQ0z4b2VS86a6ckQr-7">
          <mxGeometry relative="1" as="geometry" />
        </mxCell>
        <mxCell id="loqaQ0z4b2VS86a6ckQr-6" value="UMETNICKO DELO" style="rounded=0;whiteSpace=wrap;html=1;strokeColor=default;align=center;verticalAlign=middle;fontFamily=Helvetica;fontSize=12;fontColor=default;labelBackgroundColor=default;fillColor=default;" vertex="1" parent="1">
          <mxGeometry x="200" y="365" width="120" height="60" as="geometry" />
        </mxCell>
        <mxCell id="loqaQ0z4b2VS86a6ckQr-9" value="M" style="edgeStyle=none;shape=connector;rounded=0;orthogonalLoop=1;jettySize=auto;html=1;strokeColor=default;align=center;verticalAlign=middle;fontFamily=Helvetica;fontSize=12;fontColor=default;labelBackgroundColor=default;endArrow=none;" edge="1" parent="1" source="loqaQ0z4b2VS86a6ckQr-7" target="TeIeKEtfFJ5j0w1cXCWO-47">
          <mxGeometry relative="1" as="geometry" />
        </mxCell>
        <mxCell id="loqaQ0z4b2VS86a6ckQr-7" value="izlozeni" style="rhombus;whiteSpace=wrap;html=1;rounded=0;labelBackgroundColor=default;" vertex="1" parent="1">
          <mxGeometry x="364" y="370" width="66" height="50" as="geometry" />
        </mxCell>
        <mxCell id="loqaQ0z4b2VS86a6ckQr-10" style="edgeStyle=none;shape=connector;rounded=0;orthogonalLoop=1;jettySize=auto;html=1;exitX=0.5;exitY=1;exitDx=0;exitDy=0;entryX=0.576;entryY=0.015;entryDx=0;entryDy=0;entryPerimeter=0;strokeColor=default;align=center;verticalAlign=middle;fontFamily=Helvetica;fontSize=12;fontColor=default;labelBackgroundColor=default;endArrow=none;" edge="1" parent="1" source="TeIeKEtfFJ5j0w1cXCWO-13" target="loqaQ0z4b2VS86a6ckQr-6">
          <mxGeometry relative="1" as="geometry" />
        </mxCell>
        <mxCell id="loqaQ0z4b2VS86a6ckQr-17" style="edgeStyle=none;shape=connector;rounded=0;orthogonalLoop=1;jettySize=auto;html=1;exitX=1;exitY=0.5;exitDx=0;exitDy=0;strokeColor=default;align=center;verticalAlign=middle;fontFamily=Helvetica;fontSize=12;fontColor=default;labelBackgroundColor=default;endArrow=none;" edge="1" parent="1">
          <mxGeometry relative="1" as="geometry">
            <mxPoint x="120" y="394.9411764705883" as="targetPoint" />
            <mxPoint x="120" y="395" as="sourcePoint" />
          </mxGeometry>
        </mxCell>
        <mxCell id="loqaQ0z4b2VS86a6ckQr-23" style="edgeStyle=none;shape=connector;rounded=0;orthogonalLoop=1;jettySize=auto;html=1;exitX=1;exitY=0.5;exitDx=0;exitDy=0;entryX=0;entryY=0.25;entryDx=0;entryDy=0;strokeColor=default;align=center;verticalAlign=middle;fontFamily=Helvetica;fontSize=12;fontColor=default;labelBackgroundColor=default;endArrow=none;" edge="1" parent="1" source="loqaQ0z4b2VS86a6ckQr-22" target="loqaQ0z4b2VS86a6ckQr-6">
          <mxGeometry relative="1" as="geometry" />
        </mxCell>
        <mxCell id="loqaQ0z4b2VS86a6ckQr-22" value="umetnik" style="ellipse;whiteSpace=wrap;html=1;strokeColor=default;align=center;verticalAlign=middle;fontFamily=Helvetica;fontSize=12;fontColor=default;labelBackgroundColor=default;fillColor=default;" vertex="1" parent="1">
          <mxGeometry x="90" y="350" width="60" height="40" as="geometry" />
        </mxCell>
        <mxCell id="loqaQ0z4b2VS86a6ckQr-28" style="edgeStyle=none;shape=connector;rounded=0;orthogonalLoop=1;jettySize=auto;html=1;exitX=0.5;exitY=1;exitDx=0;exitDy=0;entryX=0.5;entryY=0;entryDx=0;entryDy=0;strokeColor=default;align=center;verticalAlign=middle;fontFamily=Helvetica;fontSize=12;fontColor=default;labelBackgroundColor=default;endArrow=none;" edge="1" parent="1" source="loqaQ0z4b2VS86a6ckQr-24" target="loqaQ0z4b2VS86a6ckQr-7">
          <mxGeometry relative="1" as="geometry" />
        </mxCell>
        <mxCell id="loqaQ0z4b2VS86a6ckQr-24" value="pocetok" style="ellipse;whiteSpace=wrap;html=1;strokeColor=default;align=center;verticalAlign=middle;fontFamily=Helvetica;fontSize=12;fontColor=default;labelBackgroundColor=default;fillColor=default;" vertex="1" parent="1">
          <mxGeometry x="384" y="300" width="60" height="40" as="geometry" />
        </mxCell>
        <mxCell id="loqaQ0z4b2VS86a6ckQr-27" style="edgeStyle=none;shape=connector;rounded=0;orthogonalLoop=1;jettySize=auto;html=1;exitX=0;exitY=0;exitDx=0;exitDy=0;strokeColor=default;align=center;verticalAlign=middle;fontFamily=Helvetica;fontSize=12;fontColor=default;labelBackgroundColor=default;endArrow=none;" edge="1" parent="1" source="loqaQ0z4b2VS86a6ckQr-25" target="loqaQ0z4b2VS86a6ckQr-7">
          <mxGeometry relative="1" as="geometry" />
        </mxCell>
        <mxCell id="loqaQ0z4b2VS86a6ckQr-25" value="kraj" style="ellipse;whiteSpace=wrap;html=1;strokeColor=default;align=center;verticalAlign=middle;fontFamily=Helvetica;fontSize=12;fontColor=default;labelBackgroundColor=default;fillColor=default;" vertex="1" parent="1">
          <mxGeometry x="414" y="425" width="60" height="40" as="geometry" />
        </mxCell>
      </root>
    </mxGraphModel>
  </diagram>
</mxfile>
